<svg width="24" height="24" viewBox="0 0 24 24" fill="none" xmlns="http://www.w3.org/2000/svg">
<path fill-rule="evenodd" clip-rule="evenodd" d="M12 3.75C12.9665 3.75 13.75 2.9665 13.75 2C13.75 1.0335 12.9665 0.25 12 0.25C11.0335 0.25 10.25 1.0335 10.25 2C10.25 2.9665 11.0335 3.75 12 3.75ZM17.0002 4.84029C17.8289 4.84029 18.5007 4.16848 18.5007 3.33976C18.5007 2.51104 17.8289 1.83923 17.0002 1.83923C16.1714 1.83923 15.4996 2.51104 15.4996 3.33976C15.4996 4.16848 16.1714 4.84029 17.0002 4.84029ZM21.9107 7.00016C21.9107 7.69057 21.351 8.25026 20.6606 8.25026C19.9702 8.25026 19.4105 7.69057 19.4105 7.00016C19.4105 6.30975 19.9702 5.75006 20.6606 5.75006C21.351 5.75006 21.9107 6.30975 21.9107 7.00016ZM22 13C22.5523 13 23 12.5523 23 12C23 11.4477 22.5523 11 22 11C21.4477 11 21 11.4477 21 12C21 12.5523 21.4477 13 22 13ZM21.4093 17C21.4093 17.4138 21.0739 17.7493 20.66 17.7493C20.2462 17.7493 19.9107 17.4138 19.9107 17C19.9107 16.5861 20.2462 16.2507 20.66 16.2507C21.0739 16.2507 21.4093 16.5861 21.4093 17ZM16.9973 21.1594C17.2735 21.1594 17.4973 20.9356 17.4973 20.6594C17.4973 20.3833 17.2735 20.1594 16.9973 20.1594C16.7212 20.1594 16.4973 20.3833 16.4973 20.6594C16.4973 20.9356 16.7212 21.1594 16.9973 21.1594ZM13 22C13 22.5523 12.5523 23 12 23C11.4477 23 11 22.5523 11 22C11 21.4477 11.4477 21 12 21C12.5523 21 13 21.4477 13 22ZM7.00012 22.6603C8.10469 22.6603 9.00012 21.7648 9.00012 20.6603C9.00012 19.5557 8.10469 18.6603 7.00012 18.6603C5.89555 18.6603 5.00012 19.5557 5.00012 20.6603C5.00012 21.7648 5.89555 22.6603 7.00012 22.6603ZM5.33973 17.0001C5.33973 18.1047 4.4443 19.0001 3.33973 19.0001C2.23516 19.0001 1.33973 18.1047 1.33973 17.0001C1.33973 15.8956 2.23516 15.0001 3.33973 15.0001C4.4443 15.0001 5.33973 15.8956 5.33973 17.0001ZM2 14C3.10457 14 4 13.1046 4 12C4 10.8954 3.10457 10 2 10C0.89543 10 0 10.8954 0 12C0 13.1046 0.89543 14 2 14ZM5.33973 7C5.33973 8.10457 4.4443 9 3.33973 9C2.23516 9 1.33973 8.10457 1.33973 7C1.33973 5.89543 2.23516 5 3.33973 5C4.4443 5 5.33973 5.89543 5.33973 7ZM6.99988 5.33972C8.10445 5.33972 8.99988 4.44429 8.99988 3.33972C8.99988 2.23515 8.10445 1.33972 6.99988 1.33972C5.89531 1.33972 4.99988 2.23515 4.99988 3.33972C4.99988 4.44429 5.89531 5.33972 6.99988 5.33972Z" fill="#191C21"/>
</svg>
